<svg fill="#000000" height="24" viewBox="0 0 24 24" width="24" xmlns="http://www.w3.org/2000/svg">
  <path d="M23.1,5.1c-0.8,0.4-1.7,0.6-2.6,0.7c0.9-0.6,1.7-1.5,2-2.5c-0.9,0.5-1.9,0.9-2.9,1.1c-0.8-0.9-2-1.4-3.3-1.4 c-2.5,0-4.5,2-4.5,4.5c0,0.4,0,0.7,0.1,1c-3.8-0.2-7.1-2-9.4-4.7C2.1,4.5,1.8,5.3,1.8,6.1c0,1.6,0.8,3,2,3.8 c-0.7,0-1.4-0.2-2.1-0.6v0.1c0,2.2,1.6,4,3.6,4.5c-0.2,0-0.6,0.1-1,0.1c-0.3,0-0.6,0-0.9-0.1C4,15.7,5.7,17,7.6,17.1 C6.1,18.3,4.1,19,2,19c-0.4,0-0.7,0-1.1-0.1c2,1.3,4.4,2,7,2c8.4,0,12.9-6.9,12.9-12.9V7.4C21.7,6.8,22.5,6,23.1,5.1z"/>
</svg>
